<svg width="24" height="24" viewBox="0 0 24 24" fill="none" xmlns="http://www.w3.org/2000/svg">
<path d="M4.86321 4.86346C5.21468 4.51199 5.78453 4.51199 6.136 4.86346L11.9996 10.7271L17.8632 4.86346C18.2146 4.51199 18.7845 4.51199 19.136 4.86346C19.4874 5.21493 19.4874 5.78478 19.136 6.13625L13.2724 11.9999L19.136 17.8635C19.4874 18.2149 19.4874 18.7848 19.136 19.1363C18.7845 19.4877 18.2146 19.4877 17.8632 19.1363L11.9996 13.2727L6.136 19.1363C5.78453 19.4877 5.21468 19.4877 4.86321 19.1363C4.51174 18.7848 4.51174 18.2149 4.86321 17.8635L10.7268 11.9999L4.86321 6.13625C4.51174 5.78478 4.51174 5.21493 4.86321 4.86346Z" fill="#171719"/>
</svg>
