<svg width="24" height="24" viewBox="0 0 24 24" fill="none" xmlns="http://www.w3.org/2000/svg">
<path d="M6.10055 10.9996C6.10055 10.5025 6.5035 10.0996 7.00055 10.0996H11.0005C11.4976 10.0996 11.9005 10.5025 11.9005 10.9996C11.9005 11.4966 11.4976 11.8996 11.0005 11.8996H7.00055C6.5035 11.8996 6.10055 11.4966 6.10055 10.9996Z" fill="#171719"/>
<path d="M6.10055 6.99959C6.10055 6.50253 6.5035 6.09959 7.00055 6.09959H11.0005C11.4976 6.09959 11.9005 6.50253 11.9005 6.99959C11.9005 7.49664 11.4976 7.89959 11.0005 7.89959H7.00055C6.5035 7.89959 6.10055 7.49664 6.10055 6.99959Z" fill="#171719"/>
<path fill-rule="evenodd" clip-rule="evenodd" d="M5.86725 2.09949C5.47578 2.09947 5.12923 2.09946 4.8421 2.12292C4.53631 2.1479 4.21946 2.20391 3.91101 2.36108C3.45942 2.59117 3.09227 2.95833 2.86217 3.40991C2.70501 3.71837 2.649 4.03522 2.62401 4.34101C2.60055 4.62815 2.60057 4.97462 2.60059 5.36611L2.60059 21.8995H8.98705C8.99154 21.8996 8.99604 21.8996 9.00055 21.8996C9.00505 21.8996 9.00955 21.8996 9.01405 21.8995H14.4794L14.5005 21.8997L14.5217 21.8995H21.4005V13.3662C21.4005 12.9746 21.4006 12.6282 21.3771 12.341C21.3521 12.0352 21.2961 11.7184 21.1389 11.4099C20.9088 10.9583 20.5417 10.5912 20.0901 10.3611C19.7817 10.2039 19.4648 10.1479 19.159 10.1229C18.8719 10.0995 18.5254 10.0995 18.1339 10.0995L15.4005 10.0995L15.4005 5.36616C15.4006 4.97469 15.4006 4.62814 15.3771 4.34101C15.3521 4.03522 15.2961 3.71837 15.139 3.40991C14.9089 2.95833 14.5417 2.59117 14.0901 2.36108C13.7817 2.20391 13.4648 2.1479 13.159 2.12292C12.8719 2.09946 12.5254 2.09947 12.134 2.09949H5.86725ZM9.90054 20.0994H13.6006V5.09944C13.6006 4.471 13.5895 4.37023 13.5712 4.31403C13.5119 4.13136 13.3687 3.98815 13.186 3.9288C13.1298 3.91054 13.029 3.89944 12.4006 3.89944H5.60061C4.97218 3.89944 4.87141 3.91054 4.81521 3.9288C4.63254 3.98815 4.48933 4.13136 4.42998 4.31403C4.41172 4.37023 4.40062 4.471 4.40062 5.09944V20.0994H8.10055V16.9996C8.10055 16.5025 8.50349 16.0996 9.00055 16.0996C9.4976 16.0996 9.90054 16.5025 9.90054 16.9996V20.0994ZM19.6006 20.0994H15.4006V11.8994H18.4006C19.029 11.8994 19.1298 11.9105 19.186 11.9288C19.3686 11.9882 19.5119 12.1314 19.5712 12.314C19.5895 12.3702 19.6006 12.471 19.6006 13.0994V20.0994Z" fill="#171719"/>
</svg>
