<svg width="24" height="24" viewBox="0 0 24 24" fill="none" xmlns="http://www.w3.org/2000/svg">
<path fill-rule="evenodd" clip-rule="evenodd" d="M11.5972 2.69511C11.8506 2.56843 12.1488 2.56843 12.4022 2.69511L22.0004 7.49424C22.205 7.5965 22.41 7.69893 22.57 7.79803C22.7259 7.89464 22.9931 8.07666 23.1466 8.40016C23.2474 8.61281 23.2918 8.84454 23.2797 9.07397V15C23.2797 15.4971 22.8767 15.9 22.3797 15.9C21.8826 15.9 21.4797 15.4971 21.4797 15V10.7663L19.3997 11.8063L19.3998 16.391C19.4004 16.991 19.401 17.4962 19.2412 17.9595C19.101 18.3659 18.8723 18.736 18.5715 19.0431C18.2286 19.3933 17.7765 19.6187 17.2395 19.8864L13.7475 21.6324C13.3076 21.8528 12.9367 22.0387 12.5345 22.1142C12.1811 22.1805 11.8184 22.1805 11.465 22.1142C11.0627 22.0387 10.6918 21.8528 10.2519 21.6324L6.76 19.8865C6.22296 19.6187 5.77088 19.3933 5.42793 19.0431C5.12715 18.736 4.89841 18.3659 4.75824 17.9595C4.59843 17.4962 4.59899 16.991 4.59966 16.3909L4.59974 11.8063L1.99897 10.5059C1.79436 10.4037 1.58943 10.3013 1.42946 10.2022C1.27349 10.1056 1.00626 9.92354 0.852831 9.60003C0.672754 9.22035 0.672754 8.77985 0.852831 8.40016C1.00626 8.07666 1.27348 7.89464 1.42946 7.79803C1.58943 7.69893 1.79435 7.59651 1.99895 7.49426L11.5972 2.69511ZM12.4022 15.3051L17.5997 12.7063V16.2723C17.5997 17.0555 17.588 17.2324 17.5396 17.3726C17.4864 17.5267 17.3996 17.6671 17.2856 17.7836C17.1817 17.8896 17.0288 17.9792 16.3283 18.3295L13.0283 19.9795C12.4569 20.2652 12.3248 20.3221 12.2026 20.3451C12.0685 20.3702 11.9309 20.3702 11.7969 20.3451C11.6746 20.3221 11.5425 20.2652 10.9711 19.9795L7.67114 18.3295C6.97067 17.9792 6.81769 17.8896 6.71388 17.7836C6.59979 17.6671 6.51302 17.5267 6.45986 17.3726C6.41148 17.2324 6.39974 17.0555 6.39974 16.2723V12.7063L11.5972 15.3051C11.8506 15.4318 12.1488 15.4318 12.4022 15.3051ZM3.01219 9.0001L11.9997 13.4939L20.9872 9.0001L11.9997 4.50633L3.01219 9.0001Z" fill="#171719"/>
</svg>
