<svg width="24" height="24" viewBox="0 0 24 24" fill="none" xmlns="http://www.w3.org/2000/svg">
<path d="M7.59968 7.25303C7.59968 4.82297 9.56962 2.85303 11.9997 2.85303C14.4297 2.85303 16.3996 4.82297 16.3996 7.25303C16.3996 9.68308 14.4297 11.653 11.9997 11.653C9.56962 11.653 7.59968 9.68308 7.59968 7.25303Z" fill="#171719"/>
<path d="M11.9996 13.5991C9.68765 13.5991 7.53021 14.0517 5.91594 14.9212C4.30281 15.7902 3.09962 17.1653 3.09962 18.9991L3.09961 19.3268C3.09958 19.5135 3.09955 19.7035 3.11282 19.8659C3.12759 20.0467 3.16317 20.2709 3.27947 20.4992C3.43767 20.8096 3.6901 21.0621 4.00059 21.2202C4.22884 21.3365 4.45309 21.3721 4.63382 21.3869C4.79626 21.4001 4.98629 21.4001 5.17294 21.4L18.8265 21.3992C19.0131 21.3992 19.2031 21.3993 19.3655 21.386C19.5462 21.3712 19.7705 21.3356 19.9987 21.2193C20.3091 21.0611 20.5615 20.8087 20.7197 20.4983C20.836 20.27 20.8716 20.0458 20.8863 19.8651C20.8996 19.7027 20.8996 19.5126 20.8995 19.326L20.8995 18.9991C20.8995 17.1653 19.6963 15.7902 18.0832 14.9212C16.4689 14.0517 14.3115 13.5991 11.9996 13.5991Z" fill="#171719"/>
</svg>
